<?xml version="1.0" encoding="UTF-8"?>
<svg width="25px" height="25px" viewBox="0 0 25 25" version="1.1" xmlns="http://www.w3.org/2000/svg" xmlns:xlink="http://www.w3.org/1999/xlink">
    <!-- Generator: Sketch 49 (51002) - http://www.bohemiancoding.com/sketch -->
    <title>Shape</title>
    <desc>Created with Sketch.</desc>
    <defs></defs>
    <g id="Page-1" stroke="none" stroke-width="1" fill="none" fill-rule="evenodd">
        <g id="Artboard" transform="translate(-1015.000000, -4081.000000)" fill="#F1F2F2" fill-rule="nonzero">
            <g id="linkedin" transform="translate(1005.000000, 4072.000000)">
                <path d="M34.8947257,24.3201316 L34.8947257,33.4496053 L29.6735221,33.4496053 L29.6735221,24.9319737 C29.6735221,22.7932895 28.9196814,21.3327632 27.0292389,21.3327632 C25.5865841,21.3327632 24.7295575,22.3160526 24.3510796,23.2681579 C24.2136283,23.6084211 24.1781947,24.0809211 24.1781947,24.5581579 L24.1781947,33.4492105 L18.9566018,33.4492105 C18.9566018,33.4492105 19.0266903,19.0231579 18.9566018,17.5298684 L24.1785841,17.5298684 L24.1785841,19.7857895 C24.1680708,19.8035526 24.1532743,19.8209211 24.1439292,19.8378947 L24.1785841,19.8378947 L24.1785841,19.7857895 C24.8724602,18.7034211 26.1099115,17.1560526 28.8842478,17.1560526 C32.3193628,17.1560526 34.8947257,19.4313158 34.8947257,24.3201316 Z M13.4943717,9.85618421 C11.7082832,9.85618421 10.5397522,11.0447368 10.5397522,12.6063158 C10.5397522,14.1347368 11.6744071,15.3576316 13.4258407,15.3576316 L13.4597168,15.3576316 C15.2808496,15.3576316 16.4131681,14.1347368 16.4131681,12.6063158 C16.3785133,11.0447368 15.2808496,9.85618421 13.4943717,9.85618421 Z M10.8500885,33.4496053 L16.0697345,33.4496053 L16.0697345,17.5298684 L10.8500885,17.5298684 L10.8500885,33.4496053 Z" id="Shape"></path>
            </g>
        </g>
    </g>
</svg>