<?xml version="1.0" encoding="UTF-8"?>
<svg width="27px" height="21px" viewBox="0 0 27 21" version="1.1" xmlns="http://www.w3.org/2000/svg" xmlns:xlink="http://www.w3.org/1999/xlink">
    <!-- Generator: Sketch 49 (51002) - http://www.bohemiancoding.com/sketch -->
    <title>Shape</title>
    <desc>Created with Sketch.</desc>
    <defs></defs>
    <g id="Page-1" stroke="none" stroke-width="1" fill="none" fill-rule="evenodd">
        <g id="Artboard" transform="translate(-1079.000000, -4085.000000)" fill="#F1F2F2" fill-rule="nonzero">
            <g id="twitter" transform="translate(1070.000000, 4072.000000)">
                <path d="M35.2237522,15.6982655 C34.2876814,16.1133451 33.2807434,16.3940885 32.2247434,16.519469 C33.3029381,15.8734867 34.1303717,14.8513628 34.5209204,13.6314336 C33.5120354,14.2299115 32.3941239,14.6640708 31.2053451,14.8980885 C30.2529204,13.8837522 28.8959292,13.2498407 27.3933097,13.2498407 C24.5103363,13.2498407 22.1721062,15.5880708 22.1721062,18.4710442 C22.1721062,18.8802832 22.2184425,19.2786195 22.308,19.6609912 C17.9687434,19.4433274 14.1212743,17.3648142 11.5459115,14.2049912 C11.0965664,14.9759646 10.8387965,15.8734867 10.8387965,16.8301947 C10.8387965,18.6412035 11.7612389,20.24 13.1614513,21.1760708 C12.3059823,21.1492035 11.500354,20.9144071 10.7967434,20.5223009 C10.796354,20.5444956 10.796354,20.5666903 10.796354,20.5884956 C10.796354,23.1183009 12.5968496,25.228354 14.9849204,25.7076814 C14.5472566,25.8276106 14.0850619,25.8910796 13.6096283,25.8910796 C13.2724248,25.8910796 12.9457345,25.8587611 12.6272212,25.7980177 C13.2915044,27.8718584 15.2193274,29.3814867 17.5046018,29.4239292 C15.7173451,30.824531 13.4663363,31.6589735 11.019469,31.6589735 C10.5989381,31.6589735 10.1823009,31.6344425 9.77461947,31.5857699 C12.0840354,33.0677522 14.8291681,33.9317876 17.7775575,33.9317876 C27.3812389,33.9317876 32.6332035,25.9759646 32.6332035,19.0757522 C32.6332035,18.8495221 32.6281416,18.6240708 32.6180177,18.4005664 C33.6389735,17.6646372 34.5240354,16.7453097 35.2237522,15.6982655 Z" id="Shape"></path>
            </g>
        </g>
    </g>
</svg>